PathFileType	3	(X/Y/Z)	squats_2__view2_aligned.trc
DataRate	CameraRate	NumFrames	NumMarkers	Units	OrigDataRate	OrigDataStartFrame	OrigNumFrames
100.0	100.0	18	19	mm	100.0	310	1550
Frame#	Time	pelvis			neck			head			hip_left			hip_right			knee_left			knee_right			ankle_left			ankle_right			heel_left			heel_right			toe_left			toe_right			shoulder_left			shoulder_right			elbow_left			elbow_right			wrist_left			wrist_right			
		X1	Y1	Z1	X2	Y2	Z2	X3	Y3	Z3	X4	Y4	Z4	X5	Y5	Z5	X6	Y6	Z6	X7	Y7	Z7	X8	Y8	Z8	X9	Y9	Z9	X10	Y10	Z10	X11	Y11	Z11	X12	Y12	Z12	X13	Y13	Z13	X14	Y14	Z14	X15	Y15	Z15	X16	Y16	Z16	X17	Y17	Z17	X18	Y18	Z18	X19	Y19	Z19	
310	3.09000	16.520704	691.399672	125.800412	38.077358	1125.910612	-173.986092	42.138457	1198.068461	-321.304950	-56.312269	689.395384	121.490164	89.353745	693.403960	130.110670	-123.531867	482.190582	-210.625892	211.986021	438.631260	-149.022943	-134.359383	180.184738	17.784608	186.732539	107.963755	31.848757	-135.878852	148.075806	64.251017	174.907112	76.188356	75.844737	-123.490112	96.748669	-135.891638	228.640763	3.515958	-111.435939	-131.645504	1104.223952	-138.642081	204.110462	1081.916497	-137.402524	-217.430524	851.685885	-136.939853	287.696707	827.727398	-122.989424	-138.933850	722.360524	-316.729035	202.747130	702.402836	-298.738198
311	3.10000	15.616963	685.954096	126.125843	36.726398	1119.659466	-173.871899	40.425987	1191.517980	-321.204853	-57.146367	684.016400	121.705148	88.380383	687.891792	130.546552	-124.550009	481.507125	-212.699897	211.968739	435.818390	-149.866178	-135.333408	180.737113	17.272977	185.464206	105.818789	32.002349	-136.854989	148.805553	63.851065	173.500713	74.181838	76.070736	-125.038589	96.979403	-136.156117	227.516237	0.934382	-110.896264	-132.965090	1097.520686	-138.536361	202.824623	1076.638903	-137.123748	-218.535127	845.127640	-138.540366	287.614096	823.302266	-122.060136	-138.486637	717.069303	-319.169611	205.712933	698.317684	-298.925628
312	3.11000	14.713221	680.508520	126.451275	35.375438	1113.408321	-173.757707	38.713517	1184.967500	-321.104757	-57.980465	678.637416	121.920133	87.407020	682.379624	130.982434	-125.568150	480.823667	-214.773902	211.951457	433.005520	-150.709414	-136.307434	181.289489	16.761347	184.195874	103.673822	32.155941	-137.831125	149.535300	63.451113	172.094315	72.175321	76.296734	-126.587065	97.210136	-136.420596	226.391711	-1.647194	-110.356589	-134.284676	1090.817421	-138.430641	201.538784	1071.361309	-136.844972	-219.639730	838.569394	-140.140879	287.531484	818.877135	-121.130848	-138.039424	711.778081	-321.610187	208.678736	694.232533	-299.113057
313	3.12000	13.809480	675.062944	126.776706	34.024478	1107.157176	-173.643514	37.001046	1178.417020	-321.004661	-58.814563	673.258432	122.135117	86.433658	676.867455	131.418316	-126.586292	480.140210	-216.847907	211.934174	430.192651	-151.552649	-137.281459	181.841865	16.249716	182.927541	101.528855	32.309533	-138.807262	150.265047	63.051162	170.687916	70.168804	76.522733	-128.135542	97.440870	-136.685074	225.267186	-4.228770	-109.816914	-135.604262	1084.114156	-138.324920	200.252945	1066.083715	-136.566197	-220.744333	832.011148	-141.741392	287.448872	814.452003	-120.201560	-137.592211	706.486859	-324.050762	211.644539	690.147381	-299.300487
314	3.13000	12.905739	669.617368	127.102137	32.673519	1100.906030	-173.529322	35.288576	1171.866539	-320.904565	-59.648661	667.879448	122.350102	85.460296	671.355287	131.854197	-127.604434	479.456753	-218.921912	211.916892	427.379781	-152.395885	-138.255485	182.394241	15.738085	181.659209	99.383889	32.463125	-139.783398	150.994794	62.651210	169.281518	68.162286	76.748731	-129.684019	97.671603	-136.949553	224.142660	-6.810346	-109.277239	-136.923848	1077.410891	-138.219200	198.967106	1060.806121	-136.287421	-221.848935	825.452902	-143.341905	287.366261	810.026871	-119.272273	-137.144998	701.195638	-326.491338	214.610342	686.062230	-299.487917
315	3.14000	12.001997	664.171792	127.427569	31.322559	1094.654885	-173.415129	33.576105	1165.316059	-320.804469	-60.482759	662.500464	122.565087	84.486933	665.843119	132.290079	-128.622575	478.773296	-220.995917	211.899610	424.566911	-153.239120	-139.229510	182.946616	15.226455	180.390876	97.238922	32.616718	-140.759535	151.724541	62.251259	167.875120	66.155769	76.974730	-131.232496	97.902337	-137.214032	223.018134	-9.391922	-108.737564	-138.243435	1070.707626	-138.113480	197.681267	1055.528526	-136.008645	-222.953538	818.894656	-144.942418	287.283649	805.601739	-118.342985	-136.697785	695.904416	-328.931913	217.576145	681.977078	-299.675347
316	3.15000	11.098256	658.726216	127.753000	29.971599	1088.403740	-173.300936	31.863635	1158.765578	-320.704373	-61.316857	657.121480	122.780071	83.513571	660.330951	132.725961	-129.640717	478.089839	-223.069922	211.882328	421.754041	-154.082356	-140.203536	183.498992	14.714824	179.122544	95.093956	32.770310	-141.735671	152.454288	61.851307	166.468721	64.149252	77.200728	-132.780972	98.133071	-137.478511	221.893608	-11.973498	-108.197889	-139.563021	1064.004361	-138.007760	196.395429	1050.250932	-135.729870	-224.058141	812.336410	-146.542931	287.201038	801.176607	-117.413697	-136.250572	690.613194	-331.372489	220.541948	677.891927	-299.862777
317	3.16000	10.194514	653.280640	128.078432	28.620639	1082.152594	-173.186744	30.151165	1152.215098	-320.604276	-62.150955	651.742496	122.995056	82.540209	654.818782	133.161843	-130.658858	477.406381	-225.143927	211.865046	418.941172	-154.925591	-141.177561	184.051368	14.203193	177.854211	92.948989	32.923902	-142.711808	153.184035	61.451355	165.062323	62.142734	77.426727	-134.329449	98.363804	-137.742990	220.769083	-14.555074	-107.658214	-140.882607	1057.301096	-137.902039	195.109590	1044.973338	-135.451094	-225.162743	805.778164	-148.143444	287.118426	796.751475	-116.484409	-135.803359	685.321972	-333.813064	223.507751	673.806776	-300.050207
318	3.17000	9.193614	648.123249	127.929550	27.334913	1076.679803	-173.173930	28.594991	1146.479147	-320.585855	-63.077484	646.691242	122.755825	81.464937	649.555256	133.103310	-131.419469	476.468830	-226.914856	211.279401	414.073384	-154.177953	-141.949989	184.253697	13.702036	176.967983	88.083064	33.400059	-143.518169	153.501063	61.020612	164.153029	57.205191	77.844223	-135.345614	98.495441	-138.046164	220.112169	-19.148245	-107.226696	-142.128079	1051.437036	-137.813562	193.901692	1040.144760	-135.425100	-226.698844	800.152369	-149.636947	287.442572	792.718286	-116.377392	-137.532376	680.814909	-335.476413	226.204750	669.970629	-300.511937
319	3.18000	8.192713	642.965859	127.780668	26.049187	1071.207013	-173.161117	27.038816	1140.743196	-320.567434	-64.004012	641.639988	122.516594	80.389665	644.291729	133.044778	-132.180079	475.531278	-228.685785	210.693756	409.205597	-153.430314	-142.722417	184.456025	13.200879	176.081755	83.217140	33.876216	-144.324531	153.818090	60.589870	163.243735	52.267648	78.261719	-136.361779	98.627077	-138.349338	219.455255	-23.741416	-106.795179	-143.373551	1045.572977	-137.725084	192.693794	1035.316182	-135.399106	-228.234944	794.526574	-151.130449	287.766717	788.685096	-116.270374	-139.261393	676.307846	-337.139762	228.901749	666.134483	-300.973667
320	3.19000	7.191813	637.808469	127.631787	24.763461	1065.734222	-173.148304	25.482642	1135.007245	-320.549012	-64.930541	636.588734	122.277363	79.314393	639.028202	132.986245	-132.940689	474.593727	-230.456713	210.108112	404.337810	-152.682676	-143.494844	184.658354	12.699721	175.195527	78.351215	34.352373	-145.130893	154.135118	60.159127	162.334441	47.330106	78.679215	-137.377944	98.758713	-138.652512	218.798341	-28.334587	-106.363661	-144.619023	1039.708918	-137.636607	191.485897	1030.487603	-135.373112	-229.771044	788.900779	-152.623952	288.090863	784.651907	-116.163357	-140.990410	671.800783	-338.803111	231.598748	662.298336	-301.435397
321	3.20000	6.190912	632.651078	127.482905	23.477735	1060.261431	-173.135490	23.926468	1129.271295	-320.530591	-65.857070	631.537480	122.038132	78.239121	633.764675	132.927712	-133.701299	473.656175	-232.227642	209.522467	399.470022	-151.935038	-144.267272	184.860683	12.198564	174.309298	73.485291	34.828529	-145.937254	154.452145	59.728384	161.425147	42.392563	79.096711	-138.394109	98.890350	-138.955686	218.141426	-32.927758	-105.932143	-145.864495	1033.844859	-137.548129	190.277999	1025.659025	-135.347118	-231.307144	783.274984	-154.117454	288.415008	780.618717	-116.056339	-142.719427	667.293719	-340.466460	234.295747	658.462190	-301.897127
322	3.21000	5.190012	627.493688	127.334023	22.192009	1054.788641	-173.122677	22.370294	1123.535344	-320.512170	-66.783599	626.486227	121.798901	77.163849	628.501148	132.869180	-134.461909	472.718623	-233.998571	208.936822	394.602235	-151.187399	-145.039700	185.063012	11.697407	173.423070	68.619366	35.304686	-146.743616	154.769173	59.297641	160.515853	37.455020	79.514208	-139.410274	99.021986	-139.258860	217.484512	-37.520929	-105.500626	-147.109966	1027.980800	-137.459651	189.070101	1020.830447	-135.321124	-232.843244	777.649188	-155.610957	288.739154	776.585528	-115.949322	-144.448444	662.786656	-342.129809	236.992746	654.626043	-302.358857
323	3.22000	4.189111	622.336298	127.185141	20.906283	1049.315850	-173.109863	20.814120	1117.799393	-320.493748	-67.710128	621.434973	121.559670	76.088577	623.237621	132.810647	-135.222519	471.781072	-235.769500	208.351177	389.734448	-150.439761	-145.812128	185.265341	11.196249	172.536842	63.753442	35.780843	-147.549978	155.086200	58.866898	159.606559	32.517477	79.931704	-140.426440	99.153622	-139.562033	216.827598	-42.114100	-105.069108	-148.355438	1022.116741	-137.371174	187.862204	1016.001869	-135.295130	-234.379345	772.023393	-157.104460	289.063299	772.552338	-115.842304	-146.177461	658.279593	-343.793158	239.689745	650.789896	-302.820587
324	3.23000	3.188211	617.178907	127.036260	19.620557	1043.843059	-173.097050	19.257946	1112.063442	-320.475327	-68.636657	616.383719	121.320440	75.013304	617.974094	132.752115	-135.983129	470.843520	-237.540428	207.765533	384.866660	-149.692122	-146.584555	185.467670	10.695092	171.650613	58.887517	36.257000	-148.356339	155.403228	58.436155	158.697265	27.579934	80.349200	-141.442605	99.285259	-139.865207	216.170684	-46.707271	-104.637590	-149.600910	1016.252681	-137.282696	186.654306	1011.173290	-135.269136	-235.915445	766.397598	-158.597962	289.387445	768.519149	-115.735287	-147.906478	653.772529	-345.456507	242.386744	646.953750	-303.282317
325	3.24000	2.187311	612.021517	126.887378	18.334831	1038.370269	-173.084236	17.701772	1106.327492	-320.456906	-69.563186	611.332465	121.081209	73.938032	612.710567	132.693582	-136.743739	469.905969	-239.311357	207.179888	379.998873	-148.944484	-147.356983	185.669998	10.193935	170.764385	54.021593	36.733157	-149.162701	155.720255	58.005413	157.787971	22.642391	80.766696	-142.458770	99.416895	-140.168381	215.513770	-51.300442	-104.206073	-150.846382	1010.388622	-137.194219	185.446408	1006.344712	-135.243142	-237.451545	760.771803	-160.091465	289.711590	764.485959	-115.628269	-149.635495	649.265466	-347.119856	245.083743	643.117603	-303.744047
326	3.25000	1.186410	606.864127	126.738496	17.049105	1032.897478	-173.071423	16.145598	1100.591541	-320.438484	-70.489715	606.281211	120.841978	72.862760	607.447041	132.635050	-137.504349	468.968417	-241.082286	206.594243	375.131086	-148.196846	-148.129411	185.872327	9.692777	169.878157	49.155668	37.209313	-149.969062	156.037283	57.574670	156.878677	17.704848	81.184193	-143.474935	99.548532	-140.471555	214.856856	-55.893613	-103.774555	-152.091854	1004.524563	-137.105741	184.238511	1001.516134	-135.217148	-238.987645	755.146008	-161.584967	290.035736	760.452770	-115.521252	-151.364512	644.758403	-348.783205	247.780742	639.281457	-304.205777
327	3.26000	0.185510	601.706736	126.589615	15.763379	1027.424687	-173.058609	14.589423	1094.855590	-320.420063	-71.416244	601.229957	120.602747	71.787488	602.183514	132.576517	-138.264959	468.030865	-242.853215	206.008598	370.263298	-147.449207	-148.901839	186.074656	9.191620	168.991928	44.289744	37.685470	-150.775424	156.354311	57.143927	155.969384	12.767305	81.601689	-144.491100	99.680168	-140.774729	214.199942	-60.486784	-103.343037	-153.337326	998.660504	-137.017264	183.030613	996.687556	-135.191154	-240.523745	749.520212	-163.078470	290.359882	756.419580	-115.414234	-153.093529	640.251339	-350.446554	250.477741	635.445310	-304.667507
